<svg width="100" height="100" viewBox="0 0 100 100" fill="none" xmlns="http://www.w3.org/2000/svg">
<path d="M71.0887 30.8158C67.1755 29.02 63.0464 27.7383 58.8041 27.0026C58.7657 26.9961 58.7262 27.0017 58.6911 27.0186C58.656 27.0355 58.627 27.0629 58.608 27.0969C58.0762 28.0398 57.4878 29.2732 57.0767 30.2388C52.5039 29.5448 47.8525 29.5448 43.2797 30.2388C42.8211 29.1631 42.3023 28.1142 41.7258 27.0969C41.7064 27.0632 41.6773 27.0362 41.6423 27.0194C41.6073 27.0025 41.568 26.9967 41.5296 27.0026C37.2865 27.7343 33.1564 29.0167 29.2451 30.8158C29.2117 30.8286 29.1837 30.8526 29.1659 30.8837C21.3434 42.5723 19.1973 53.9742 20.2496 65.2328C20.2533 65.2856 20.2873 65.3384 20.3288 65.3724C24.884 68.7466 29.9791 71.3229 35.3968 72.9913C35.4351 73.0033 35.4762 73.0029 35.5142 72.99C35.5521 72.9771 35.585 72.9525 35.608 72.9196C36.7697 71.3355 37.8032 69.6646 38.6933 67.907C38.7119 67.8708 38.7182 67.8295 38.7114 67.7894C38.7046 67.7493 38.685 67.7125 38.6556 67.6844C38.6361 67.666 38.613 67.6519 38.5877 67.643C36.9627 67.0184 35.3889 66.2681 33.8806 65.3988C33.8385 65.3749 33.8071 65.3357 33.7931 65.2894C33.779 65.2431 33.7834 65.1931 33.8052 65.1498C33.818 65.1218 33.8374 65.0972 33.8617 65.0782C34.1786 64.8406 34.4954 64.5916 34.7971 64.3427C34.8238 64.3213 34.8558 64.3075 34.8896 64.3028C34.9235 64.2982 34.958 64.3028 34.9895 64.3163C44.8676 68.8273 55.5605 68.8273 65.3179 64.3163C65.3505 64.3022 65.3863 64.2972 65.4215 64.3018C65.4567 64.3065 65.49 64.3206 65.5178 64.3427C65.8196 64.5916 66.1364 64.8406 66.4532 65.0782C66.4789 65.0969 66.4995 65.1218 66.5132 65.1505C66.527 65.1791 66.5334 65.2108 66.5319 65.2425C66.5304 65.2743 66.521 65.3052 66.5047 65.3325C66.4883 65.3597 66.4654 65.3825 66.4381 65.3988C64.9333 66.2761 63.3574 67.0255 61.7272 67.6392C61.7012 67.6486 61.6776 67.6636 61.6581 67.6832C61.6385 67.7027 61.6235 67.7263 61.6141 67.7523C61.6054 67.7775 61.6019 67.8042 61.6038 67.8308C61.6058 67.8574 61.6131 67.8833 61.6254 67.907C62.5306 69.6608 63.5678 71.3355 64.7069 72.9196C64.7299 72.9525 64.7628 72.9771 64.8008 72.99C64.8388 73.0029 64.8799 73.0033 64.9181 72.9913C70.3449 71.328 75.4483 68.7515 80.0088 65.3724C80.0316 65.3566 80.0506 65.3358 80.0643 65.3116C80.078 65.2875 80.0861 65.2605 80.088 65.2328C81.3477 52.2166 77.9796 40.909 71.1641 30.8875C71.1572 30.8709 71.147 30.856 71.134 30.8437C71.121 30.8313 71.1055 30.8218 71.0887 30.8158V30.8158ZM40.1681 58.3758C37.1922 58.3758 34.7443 55.6451 34.7443 52.2958C34.7443 48.9427 37.1469 46.212 40.1681 46.212C43.2118 46.212 45.6371 48.9654 45.5918 52.2958C45.5918 55.6451 43.1892 58.3758 40.1681 58.3758ZM60.2185 58.3758C57.2464 58.3758 54.7948 55.6451 54.7948 52.2958C54.7948 48.9427 57.1974 46.212 60.2185 46.212C63.2623 46.212 65.6913 48.9654 65.6423 52.2958C65.6423 55.6451 63.2623 58.3758 60.2185 58.3758Z" fill="#2490B6"/>
<rect x="2" y="2" width="96" height="96" rx="13" stroke="#2596BE" stroke-width="4"/>
</svg>
