<svg width="100" height="100" viewBox="0 0 100 100" fill="none" xmlns="http://www.w3.org/2000/svg">
<rect x="2" y="2" width="96" height="96" rx="13" stroke="#2596BE" stroke-width="4"/>
<path d="M64.0898 49.2121C65.7543 49.3246 67.4028 48.8281 68.7283 47.8151C70.0537 46.8021 70.9656 45.3417 71.294 43.7061C70.8861 43.0737 70.326 42.5536 69.665 42.1936C69.0041 41.8336 68.2634 41.6452 67.5107 41.6456C63.5331 41.5545 61.399 46.2867 64.0916 49.2139L64.0898 49.2121ZM48.0236 30.217L57.4057 24.7828L54.4154 23.0968L41.476 30.5916L42.5072 31.1658L44.4662 32.267L48.0236 30.2082V30.217ZM58.6084 24.2821C58.7642 24.3293 58.8903 24.4571 58.9375 24.6112L63.2863 37.9043C63.3263 38.0144 63.3263 38.1351 63.2863 38.2452C63.2463 38.3553 63.1688 38.4478 63.0674 38.5066C61.3915 39.4927 60.0864 41.0027 59.3534 42.8038C58.6203 44.6049 58.5001 46.5971 59.0111 48.4733C59.565 50.4981 60.8192 52.2608 62.5506 53.4479C64.2819 54.635 66.3782 55.1694 68.4666 54.9562C68.583 54.947 68.6991 54.977 68.7965 55.0414C68.8939 55.1058 68.967 55.2009 69.0041 55.3116L73.4911 68.9723C73.5262 69.0828 73.5238 69.2018 73.4842 69.3107C73.4446 69.4196 73.3701 69.5124 73.2723 69.5746L59.5135 77.9272C59.4436 77.9672 59.3647 77.9889 59.2842 77.9902C59.2232 78.003 59.1602 78.0033 59.0991 77.9909C59.038 77.9786 58.98 77.9539 58.9288 77.9184L54.0881 74.7724C54.0048 74.7162 53.9388 74.638 53.8972 74.5466L44.4504 51.9695L30.0614 60.5042C30.0334 60.5234 29.9966 60.5409 29.9703 60.5602C29.8966 60.5899 29.8169 60.6021 29.7375 60.5957C29.6582 60.5893 29.5815 60.5646 29.5134 60.5234L26.2589 58.6099C26.1442 58.5476 26.0588 58.4426 26.0211 58.3178C25.9834 58.1929 25.9965 58.0582 26.0575 57.9429L39.9809 30.371C40.03 30.269 40.1138 30.1877 40.2172 30.1417L54.1511 22.0727C54.2281 22.0266 54.3158 22.0016 54.4055 22.0001C54.4952 21.9985 54.5838 22.0206 54.6623 22.0639L58.6084 24.2821ZM44.039 33.2107L40.6567 31.3042L27.1885 57.9656L29.6325 59.4065L41.2414 43.6239C41.293 43.5481 41.3648 43.4883 41.4487 43.4512C41.5325 43.4141 41.625 43.4011 41.7158 43.4138C41.8059 43.4237 41.8917 43.4577 41.9641 43.5122C42.0365 43.5668 42.0929 43.6398 42.1272 43.7237L54.7813 74.0039L58.1655 76.194L44.0495 33.2107H44.039ZM67.509 51.6929C63.5594 51.6929 60.8791 47.6802 62.3917 44.0318C63.8973 40.3851 68.6294 39.4467 71.4183 42.2373C72.46 43.2755 73.043 44.6813 73.043 46.1501C73.0448 46.8779 72.903 47.5988 72.6257 48.2717C72.3483 48.9445 71.9409 49.556 71.4268 50.0711C70.9127 50.5861 70.302 50.9947 69.6297 51.2733C68.9574 51.5519 68.2367 51.6951 67.509 51.6946V51.6929Z" fill="#2596BE"/>
</svg>
