<svg width="100" height="100" viewBox="0 0 100 100" fill="none" xmlns="http://www.w3.org/2000/svg">
<rect x="2.25" y="2.25" width="95.5" height="95.5" rx="12.75" stroke="#2596BE" stroke-width="4.5"/>
<path fill-rule="evenodd" clip-rule="evenodd" d="M50 22C34.53 22 22 34.53 22 50C22 62.39 30.015 72.855 41.145 76.565C42.545 76.81 43.07 75.97 43.07 75.235C43.07 74.57 43.035 72.365 43.035 70.02C36 71.315 34.18 68.305 33.62 66.73C33.305 65.925 31.94 63.44 30.75 62.775C29.77 62.25 28.37 60.955 30.715 60.92C32.92 60.885 34.495 62.95 35.02 63.79C37.54 68.025 41.565 66.835 43.175 66.1C43.42 64.28 44.155 63.055 44.96 62.355C38.73 61.655 32.22 59.24 32.22 48.53C32.22 45.485 33.305 42.965 35.09 41.005C34.81 40.305 33.83 37.435 35.37 33.585C35.37 33.585 37.715 32.85 43.07 36.455C45.31 35.825 47.69 35.51 50.07 35.51C52.45 35.51 54.83 35.825 57.07 36.455C62.425 32.815 64.77 33.585 64.77 33.585C66.31 37.435 65.33 40.305 65.05 41.005C66.835 42.965 67.92 45.45 67.92 48.53C67.92 59.275 61.375 61.655 55.145 62.355C56.16 63.23 57.035 64.91 57.035 67.535C57.035 71.28 57 74.29 57 75.235C57 75.97 57.525 76.845 58.925 76.565C64.4834 74.6883 69.3134 71.1159 72.7352 66.3505C76.157 61.5851 77.9983 55.8667 78 50C78 34.53 65.47 22 50 22Z" fill="#2596BE"/>
</svg>
