<svg width="100" height="100" viewBox="0 0 100 100" fill="none" xmlns="http://www.w3.org/2000/svg">
<rect x="2.25" y="2.25" width="95.5" height="95.5" rx="12.75" stroke="#2596BE" stroke-width="4.5"/>
<path d="M50 23C35.1122 23 23 35.1122 23 50C23 64.8878 35.1122 77 50 77C64.8878 77 77 64.8878 77 50C77 35.1122 64.8878 23 50 23ZM52.7 66.2H47.3V60.8H52.7V66.2ZM55.3352 53.0105C54.806 53.4371 54.2957 53.8448 53.8907 54.2498C52.7891 55.3487 52.7027 56.3477 52.7 56.3909V56.75H47.3V56.2991C47.3 55.9805 47.3783 53.1212 50.0702 50.4293C50.5967 49.9028 51.2501 49.3682 51.9359 48.812C53.9177 47.2055 55.2191 46.0337 55.2191 44.4191C55.1877 43.0551 54.6238 41.7576 53.6479 40.8041C52.672 39.8507 51.3617 39.317 49.9973 39.3174C48.633 39.3177 47.323 39.852 46.3476 40.806C45.3722 41.76 44.8089 43.0578 44.7782 44.4218H39.3782C39.3782 38.5655 44.1437 33.8 50 33.8C55.8563 33.8 60.6218 38.5655 60.6218 44.4218C60.6218 48.7337 57.4385 51.3068 55.3352 53.0105V53.0105Z" fill="#2596BE"/>
</svg>
