<svg width="100" height="100" viewBox="0 0 100 100" fill="none" xmlns="http://www.w3.org/2000/svg">
<rect x="2.25" y="2.25" width="95.5" height="95.5" rx="12.75" stroke="#2596BE" stroke-width="4.5"/>
<path d="M30.25 25.5C27.3516 25.5 25 27.8516 25 30.75V69.25C25 72.1484 27.3516 74.5 30.25 74.5H68.75C71.6484 74.5 74 72.1484 74 69.25V30.75C74 27.8516 71.6484 25.5 68.75 25.5H30.25ZM54.9762 32.5L64.272 45.0289L61.7664 46.888L52.4708 34.359L54.9762 32.5ZM49.1972 37.5118L61.2006 47.4942L59.2198 49.8789L47.2168 39.8956L49.1972 37.5118V37.5118ZM44.5896 43.9781L58.7354 50.6058L57.4423 53.435L43.2968 46.8476L44.5896 43.9781V43.9781ZM41.9225 51.0511L57.1993 54.2433L56.5526 57.3157L41.2761 54.1223L41.9225 51.0509V51.0511ZM34.7278 55.0116H37.8406V64.3885H59.7053V55.0115H62.817V67.5H34.7278V55.0113V55.0116ZM40.9522 58.1239H56.5524V61.2357H40.9523V58.1239H40.9522Z" fill="#2596BE"/>
</svg>
